<?xml version="1.0" encoding="UTF-8" standalone="no"?>
<!-- Created with Inkscape (http://www.inkscape.org/) -->

<svg
   xmlns:dc="http://purl.org/dc/elements/1.1/"
   xmlns:cc="http://creativecommons.org/ns#"
   xmlns:rdf="http://www.w3.org/1999/02/22-rdf-syntax-ns#"
   xmlns:svg="http://www.w3.org/2000/svg"
   xmlns="http://www.w3.org/2000/svg"
   xmlns:sodipodi="http://sodipodi.sourceforge.net/DTD/sodipodi-0.dtd"
   xmlns:inkscape="http://www.inkscape.org/namespaces/inkscape"
   width="210mm"
   height="297mm"
   viewBox="0 0 744.09448819 1052.3622047"
   id="svg4321"
   version="1.1"
   inkscape:version="0.91 r13725"
   sodipodi:docname="tastingIconSmall.svg">
  <defs
     id="defs4323" />
  <sodipodi:namedview
     id="base"
     pagecolor="#ffffff"
     bordercolor="#666666"
     borderopacity="1.0"
     inkscape:pageopacity="0.0"
     inkscape:pageshadow="2"
     inkscape:zoom="0.35"
     inkscape:cx="-627.00284"
     inkscape:cy="7.4887242"
     inkscape:document-units="px"
     inkscape:current-layer="layer1"
     showgrid="false"
     inkscape:window-width="1920"
     inkscape:window-height="1017"
     inkscape:window-x="1912"
     inkscape:window-y="-8"
     inkscape:window-maximized="1" />
  <metadata
     id="metadata4326">
    <rdf:RDF>
      <cc:Work
         rdf:about="">
        <dc:format>image/svg+xml</dc:format>
        <dc:type
           rdf:resource="http://purl.org/dc/dcmitype/StillImage" />
        <dc:title></dc:title>
      </cc:Work>
    </rdf:RDF>
  </metadata>
  <g
     inkscape:label="Layer 1"
     inkscape:groupmode="layer"
     id="layer1">
    <path
       inkscape:connector-curvature="0"
       style="color:#000000;font-style:normal;font-variant:normal;font-weight:normal;font-stretch:normal;font-size:medium;line-height:normal;font-family:sans-serif;text-indent:0;text-align:start;text-decoration:none;text-decoration-line:none;text-decoration-style:solid;text-decoration-color:#000000;letter-spacing:normal;word-spacing:normal;text-transform:none;direction:ltr;block-progression:tb;writing-mode:lr-tb;baseline-shift:baseline;text-anchor:start;white-space:normal;clip-rule:nonzero;display:inline;overflow:visible;visibility:visible;opacity:0.975;isolation:auto;mix-blend-mode:normal;color-interpolation:sRGB;color-interpolation-filters:linearRGB;solid-color:#000000;solid-opacity:1;fill:#454545;fill-opacity:1;fill-rule:nonzero;stroke:none;stroke-width:25.76181793;stroke-linecap:butt;stroke-linejoin:round;stroke-miterlimit:4;stroke-dasharray:none;stroke-dashoffset:0;stroke-opacity:1;color-rendering:auto;image-rendering:auto;shape-rendering:auto;text-rendering:auto;enable-background:accumulate"
       d="m 260.52121,342.8696 c -13.44647,0 -24.67188,11.22736 -24.67188,24.67383 l 0,36.83203 13.00782,0 0,-35.07617 c 0,-7.14784 5.7545,-12.90235 12.90234,-12.90235 l 39.0293,0 0,-13.52734 -40.26758,0 z m 71.3789,0 0,13.52734 61.9121,0 0,-13.52734 -61.9121,0 z m 93.02539,0 0,13.52734 39.02929,0 c 7.14784,0 12.90236,5.75451 12.90236,12.90235 l 0,35.07617 13.00781,0 0,-36.83203 c -10e-6,-13.44647 -11.22736,-24.67383 -24.67384,-24.67383 l -40.26562,0 z m -189.07617,92.61719 0,60.77929 13.00782,0 0,-60.77929 -13.00782,0 z m 241.00781,0 0,60.77929 13.00781,0 0,-60.77929 -13.00781,0 z m -241.00781,91.89257 0,60.7793 13.00782,0 0,-60.7793 -13.00782,0 z m 241.00781,0 0,60.7793 13.00781,0 0,-60.7793 -13.00781,0 z m -241.00781,91.89258 0,26.48047 c 0,13.4465 11.22541,24.67383 24.67188,24.67383 l 40.26758,0 0,-13.5293 -39.0293,0 c -7.14784,0 -12.90234,-5.75451 -12.90234,-12.90234 l 0,-24.72266 -13.00782,0 z m 241.00781,0 0,24.72266 c 0,7.14783 -5.75451,12.90234 -12.90235,12.90234 l -39.02929,0 0,13.5293 40.26562,0 c 13.44648,0 24.67383,-11.22733 24.67383,-24.67383 l 0,-26.48047 -13.00781,0 z m -144.95703,37.625 0,13.5293 61.9121,0 0,-13.5293 -61.9121,0 z"
       id="rect4153-5" />
    <text
       xml:space="preserve"
       style="font-style:normal;font-variant:normal;font-weight:normal;font-stretch:normal;font-size:291.17739868px;line-height:125%;font-family:Roboto;-inkscape-font-specification:'Roboto, Normal';text-align:start;letter-spacing:0px;word-spacing:0px;writing-mode:lr-tb;text-anchor:start;fill:#454545;fill-opacity:1;stroke:none;stroke-width:1px;stroke-linecap:butt;stroke-linejoin:miter;stroke-opacity:1"
       x="275.84457"
       y="610.15186"
       id="text4136-3-9"
       sodipodi:linespacing="125%"><tspan
         sodipodi:role="line"
         id="tspan4138-7-8"
         x="275.84457"
         y="610.15186">T</tspan></text>
  </g>
</svg>
